<svg width="91" height="12" viewBox="0 0 91 12" fill="none" xmlns="http://www.w3.org/2000/svg">
<g clip-path="url(#clip0_306_2066)">
<path class="net" d="M0 11.5923V0.35083H2.94339L7.20905 6.13122C7.35647 6.36053 7.49101 6.59788 7.61207 6.84214C7.80075 7.19838 8.00755 7.62178 8.23245 8.11235C8.16905 7.64593 8.12604 7.23159 8.0966 6.86933C8.06717 6.50707 8.05358 6.19006 8.05358 5.90025V0.35083H10.997V11.5923H8.05358L3.8083 5.78931C3.65699 5.56113 3.52012 5.32368 3.39849 5.07839C3.20982 4.72215 3.00604 4.30328 2.78717 3.82176C2.8483 4.2927 2.89358 4.71157 2.92302 5.07384C2.95245 5.4361 2.96377 5.75308 2.96377 6.04289V11.5923H0Z" fill="#67B439"/>
<path class="net" d="M20.5676 8.25957H14.6672C14.6377 8.76207 14.7995 9.25713 15.12 9.64523C15.2869 9.8126 15.4875 9.94256 15.7084 10.0265C15.9294 10.1104 16.1656 10.1464 16.4015 10.132C16.7645 10.1464 17.1252 10.0685 17.4498 9.90561C17.7345 9.74845 17.962 9.5051 18.0997 9.21051L20.1555 10.0392C19.9027 10.6409 19.439 11.1296 18.8514 11.4135C18.1356 11.7556 17.3485 11.9217 16.5555 11.8981C15.197 11.8981 14.1133 11.5207 13.3042 10.766C12.4951 10.0113 12.0868 9.02182 12.0793 7.79768C12.0674 7.23914 12.1717 6.68422 12.3857 6.16817C12.5997 5.6521 12.9186 5.18616 13.3223 4.79995C13.7314 4.40218 14.2166 4.09109 14.7489 3.88527C15.2811 3.67946 15.8494 3.58319 16.4197 3.60221C17.7057 3.60221 18.7193 4.00675 19.4604 4.81579C20.2015 5.62484 20.5706 6.729 20.5676 8.12825V8.25957ZM17.871 6.71542C17.8386 6.31262 17.6598 5.93569 17.3683 5.6558C17.2283 5.52377 17.0637 5.42064 16.8838 5.35226C16.704 5.28389 16.5124 5.25162 16.32 5.2573C15.9322 5.23641 15.5514 5.36712 15.2582 5.62183C14.9667 5.91835 14.7813 6.30275 14.7306 6.71542H17.871Z" fill="#67B439"/>
<path class="net" d="M22.3267 11.5923V5.77348H21.1675V3.83763H22.3267V1.5282H25.0211V3.83763H26.1803V5.77348H25.0211V11.5923H22.3267Z" fill="#67B439"/>
<path class="funnel" d="M27.7654 11.5901V0.35083H34.6529V2.81424H30.7541V4.76593H34.431V7.17499H30.7541V11.5901H27.7654Z" fill="#30789A"/>
<path class="funnel" d="M36.2514 0.35083H39.3058V5.8165C39.2967 6.39452 39.3171 6.97262 39.3669 7.54858C39.3959 7.84953 39.4661 8.14509 39.5752 8.42707C39.6922 8.71373 39.9107 8.94739 40.1888 9.08367C40.5216 9.24411 40.8882 9.32177 41.2574 9.31008C41.6245 9.32186 41.989 9.24415 42.3193 9.08367C42.5971 8.94558 42.8163 8.71269 42.9374 8.42707C43.0466 8.14509 43.1168 7.84953 43.1458 7.54858C43.1956 6.97262 43.2159 6.39452 43.2069 5.8165V0.35083H46.2544V6.29197C46.2816 7.20778 46.2055 8.12369 46.028 9.02254C45.896 9.57445 45.6379 10.0883 45.2741 10.5237C44.8507 11.0053 44.3021 11.3603 43.6891 11.5493C42.0925 12.0051 40.3998 12.0051 38.8031 11.5493C38.1916 11.3576 37.6436 11.003 37.2182 10.5237C36.8591 10.0861 36.6035 9.57291 36.471 9.02254C36.2906 8.1241 36.2147 7.20784 36.2446 6.29197V0.35083H36.2514Z" fill="#30789A"/>
<path class="funnel" d="M48.3555 11.5901V0.35083H51.3102L55.5555 6.13122C55.7031 6.36087 55.8383 6.5982 55.9608 6.84216C56.1464 7.19838 56.3524 7.62178 56.5789 8.11235C56.5155 7.64593 56.4724 7.23159 56.443 6.86933C56.4136 6.50707 56.4 6.19008 56.4 5.90027V0.35083H59.3434V11.5901H56.4L52.1547 5.78707C52.0035 5.55886 51.8665 5.32142 51.7449 5.07612C51.5577 4.7214 51.3539 4.30253 51.1336 3.81952C51.1947 4.29046 51.24 4.70933 51.2694 5.07159C51.2989 5.43386 51.3102 5.75084 51.3102 6.04065V11.5901H48.3555Z" fill="#30789A"/>
<path class="funnel" d="M61.5261 11.5901V0.35083H64.4831L68.7284 6.13122C68.8749 6.36107 69.0094 6.59838 69.1314 6.84216C69.32 7.19838 69.5261 7.62178 69.7495 8.11235C69.6891 7.64593 69.6447 7.23159 69.6159 6.86933C69.5865 6.5048 69.5729 6.19008 69.5729 5.90027V0.35083H72.5163V11.5901H69.5729L65.3276 5.78707C65.1753 5.55907 65.0376 5.32162 64.9156 5.07612C64.7299 4.7214 64.5268 4.30253 64.3065 3.81952C64.3676 4.29046 64.4129 4.70933 64.4401 5.07159C64.4673 5.43386 64.4831 5.75084 64.4831 6.04065V11.5901H61.5261Z" fill="#30789A"/>
<path class="funnel" d="M74.699 11.5901V0.35083H81.5865V2.81424H77.6854V4.76593H81.3624V7.17499H77.6854V9.07235H81.5865V11.5901H74.699Z" fill="#30789A"/>
<path class="funnel" d="M83.8394 11.5901V0.35083H86.4499V8.95461H90.7111V11.581L83.8394 11.5901Z" fill="#30789A"/>
</g>
<defs>
<clipPath id="clip0_306_2066">
<rect width="90.7925" height="12" fill="white"/>
</clipPath>
</defs>
</svg>
