<svg width="160" height="64" viewBox="0 0 160 64" fill="none" xmlns="http://www.w3.org/2000/svg">
<g clip-path="url(#clip0_7_584)">
<path d="M19.059 1.45349C13.1157 2.25418 7.21901 3.36942 1.39383 4.79451C0.168067 5.09282 -0.130177 5.58095 0.439314 6.42163C1.80609 8.36332 3.06982 10.3321 4.50711 12.2521C6.56332 14.9947 8.78383 17.6102 11.1565 20.084C15.7283 17.4027 20.5786 15.2276 25.6217 13.5972C24.3905 11.8291 20.9681 6.72536 19.059 1.45349Z" fill="#99E3D0"/>
<path d="M158.546 42.7227C155.835 40.2224 153.247 37.6298 150.248 35.2868C121.985 13.2013 88.8244 1.63252 46.6549 0.108455C37.8198 -0.209739 28.9735 0.191125 20.2034 1.30709C22.503 7.4576 26.9125 13.4671 26.9776 13.5539L27.4386 14.1776L26.6956 14.4054C21.5597 15.9976 16.6199 18.1646 11.9701 20.8651C19.0806 28.1112 27.7424 34.5274 37.7708 40.1844C60.2649 52.8651 85.8233 60.4583 114.446 62.9641C125.786 63.9552 137.194 63.899 148.523 62.7959C150.389 62.6169 150.693 62.3024 150.026 61.1688C149.359 60.0352 148.643 58.8908 147.954 57.7464C146.245 54.9207 144.542 52.0895 142.812 49.2203C142.949 49.1479 143.09 49.0845 143.235 49.0305C148.816 47.6041 152.152 46.0746 157.728 44.6481C159.447 44.1979 159.675 43.7586 158.546 42.7227Z" fill="#1D4BFF"/>
<path d="M54.2915 30.3729C53.4872 30.1565 52.7371 29.774 52.0895 29.2502L52.9193 27.3953C53.5042 27.8425 54.1608 28.1873 54.861 28.4149C55.6034 28.676 56.3846 28.8099 57.1715 28.8109C57.9238 28.8667 58.6765 28.7068 59.341 28.3498C59.5566 28.2286 59.736 28.0522 59.8609 27.8387C59.9858 27.6252 60.0515 27.3823 60.0515 27.1349C60.0552 26.9635 60.0217 26.7933 59.9534 26.636C59.885 26.4787 59.7834 26.338 59.6556 26.2238C59.3612 25.977 59.0199 25.7925 58.6522 25.6814C58.2454 25.5458 57.6922 25.3939 56.9925 25.2203C56.1846 25.0386 55.3894 24.8049 54.6116 24.5207C54.0081 24.2929 53.4698 23.9205 53.0441 23.436C52.5855 22.8689 52.3535 22.1519 52.3932 21.4237C52.3869 20.7329 52.5892 20.0561 52.9736 19.482C53.4089 18.8585 54.0155 18.3744 54.72 18.0882C55.6271 17.7122 56.602 17.5275 57.5837 17.5458C58.3652 17.5471 59.1434 17.6473 59.8997 17.8441C60.6009 18.0123 61.2685 18.2984 61.8739 18.6902L61.1146 20.5505C60.563 20.221 59.9703 19.9657 59.3519 19.7912C58.7693 19.6268 58.1673 19.5411 57.562 19.5363C56.8288 19.4837 56.0964 19.6498 55.4576 20.0136C55.2437 20.1484 55.0679 20.3359 54.9473 20.5581C54.8267 20.7804 54.7652 21.0299 54.7688 21.2827C54.7625 21.4529 54.7949 21.6224 54.8635 21.7783C54.932 21.9342 55.035 22.0726 55.1647 22.1831C55.4588 22.4302 55.8003 22.6147 56.1682 22.7254C56.5695 22.861 57.1227 23.0129 57.7953 23.1864C58.5918 23.371 59.3746 23.6103 60.1383 23.9024C60.7417 24.1332 61.281 24.5052 61.7112 24.9871C62.1722 25.5447 62.4065 26.2553 62.3674 26.9776C62.3736 27.6651 62.1713 28.3383 61.7871 28.9085C61.3473 29.5283 60.7367 30.0069 60.0299 30.2861C59.1215 30.6642 58.1444 30.8489 57.1607 30.8285C56.187 30.8201 55.2199 30.6665 54.2915 30.3729Z" fill="white"/>
<path d="M76.2413 19.7587H71.9675V17.7302H82.918V19.7587H78.6495V30.6062H76.2576L76.2413 19.7587Z" fill="white"/>
<path d="M94.4922 29.9444C93.469 29.3965 92.6155 28.5786 92.0244 27.5797C91.4253 26.5456 91.1179 25.3685 91.1349 24.1735C91.1162 22.977 91.4277 21.7984 92.0353 20.7674C92.6304 19.7679 93.4875 18.9502 94.5139 18.4027C95.5959 17.824 96.807 17.5292 98.0339 17.5458C99.0242 17.5298 100.008 17.7142 100.925 18.0881C101.779 18.4489 102.535 19.0065 103.132 19.7153L101.586 21.1742C101.156 20.6889 100.626 20.3025 100.033 20.0413C99.4392 19.7801 98.7961 19.6503 98.1478 19.661C97.3193 19.6481 96.5014 19.8479 95.7722 20.2413C95.0871 20.6192 94.5229 21.1833 94.1451 21.8685C93.7572 22.5866 93.5541 23.3899 93.5541 24.2061C93.5541 25.0222 93.7572 25.8256 94.1451 26.5437C94.5229 27.2288 95.0871 27.7929 95.7722 28.1708C96.5014 28.5643 97.3193 28.7641 98.1478 28.7512C98.7976 28.7613 99.4419 28.6296 100.036 28.3655C100.63 28.1014 101.159 27.711 101.586 27.2217L103.132 28.6969C102.53 29.4047 101.77 29.9619 100.914 30.3241C99.9947 30.6974 99.0096 30.8818 98.0176 30.8664C96.7833 30.863 95.5701 30.5457 94.4922 29.9444Z" fill="white"/>
<path d="M78.2698 42.7065V36.057H76.1925V44.5506H82.5546V42.7065H78.2698Z" fill="white"/>
<path d="M95.9349 36.0624H94.2481L90.4244 44.5505H92.5939L93.402 42.6522H96.7864L97.6054 44.5505H99.7749L95.9349 36.0624ZM96.1084 41.1498H94.0095L95.0563 38.5302L96.1084 41.1498Z" fill="white"/>
<path d="M114.327 40.7973C114.099 40.5012 113.8 40.2663 113.459 40.1139C113.691 39.9471 113.886 39.7349 114.034 39.4902C114.238 39.1421 114.342 38.7439 114.332 38.3404C114.343 38.0123 114.272 37.6868 114.125 37.3932C113.978 37.0996 113.76 36.8473 113.492 36.659C112.799 36.2231 111.987 36.0145 111.17 36.0624H107.178V44.5505H111.403C112.27 44.6031 113.133 44.3912 113.877 43.9431C114.161 43.7481 114.39 43.4839 114.544 43.1755C114.698 42.8671 114.771 42.5246 114.755 42.1804C114.772 41.6844 114.621 41.1973 114.327 40.7973ZM109.001 37.6136H111.713C111.954 37.6136 112.186 37.7096 112.357 37.8805C112.528 38.0513 112.624 38.2831 112.624 38.5248C112.624 38.7665 112.528 38.9982 112.357 39.1691C112.186 39.34 111.954 39.436 111.713 39.436H109.001V37.6136ZM112.141 43.0373H109.006V41.2149H112.141C112.383 41.2149 112.614 41.3109 112.785 41.4818C112.956 41.6527 113.052 41.8845 113.052 42.1261C113.052 42.3678 112.956 42.5996 112.785 42.7705C112.614 42.9413 112.383 43.0373 112.141 43.0373Z" fill="white"/>
</g>
<defs>
<clipPath id="clip0_7_584">
<rect width="159.458" height="64" fill="white"/>
</clipPath>
</defs>
</svg>
