<svg width="207" height="41" viewBox="0 0 207 41" fill="none" xmlns="http://www.w3.org/2000/svg">
<path d="M11.9998 14.1233C11.7915 14.1233 11.6082 14.215 11.4832 14.365L6.92484 17.9316C6.7665 18.0566 6.6665 18.24 6.6665 18.4566V26.79C6.6665 27.1566 6.9665 27.4566 7.33317 27.4566C7.52484 27.4566 7.69984 27.3733 7.8165 27.2483L12.4165 23.6566L12.4082 23.6483C12.5665 23.5233 12.6665 23.34 12.6665 23.1233V14.79C12.6665 14.4233 12.3665 14.1233 11.9998 14.1233Z" fill="url(#paint0_linear_147_2746)"/>
<g opacity="0.8">
<mask id="mask0_147_2746" style="mask-type:alpha" maskUnits="userSpaceOnUse" x="6" y="14" width="7" height="14">
<path d="M11.9998 14.1233C11.7915 14.1233 11.6082 14.215 11.4832 14.365L6.92484 17.9316C6.7665 18.0566 6.6665 18.24 6.6665 18.4566V26.79C6.6665 27.1566 6.9665 27.4566 7.33317 27.4566C7.52484 27.4566 7.69984 27.3733 7.8165 27.2483L12.4165 23.6566L12.4082 23.6483C12.5665 23.5233 12.6665 23.34 12.6665 23.1233V14.79C12.6665 14.4233 12.3665 14.1233 11.9998 14.1233Z" fill="url(#paint1_linear_147_2746)"/>
</mask>
<g mask="url(#mask0_147_2746)">
<g filter="url(#filter0_f_147_2746)">
<ellipse cx="14.9998" cy="22.1234" rx="5.33333" ry="5.33333" fill="black"/>
</g>
</g>
</g>
<g style="mix-blend-mode:multiply">
<path d="M11.9998 14.1233C11.7915 14.1233 11.6082 14.215 11.4832 14.365L6.92484 17.9316C6.7665 18.0566 6.6665 18.24 6.6665 18.4566V26.79C6.6665 27.1566 6.9665 27.4566 7.33317 27.4566C7.52484 27.4566 7.69984 27.3733 7.8165 27.2483L12.4165 23.6566L12.4082 23.6483C12.5665 23.5233 12.6665 23.34 12.6665 23.1233V14.79C12.6665 14.4233 12.3665 14.1233 11.9998 14.1233Z" fill="url(#paint2_linear_147_2746)"/>
</g>
<path d="M21.3333 12.79C21.3333 12.4233 21.0333 12.1233 20.6667 12.1233C20.4833 12.1233 20.3167 12.1983 20.1917 12.315L12.1917 20.315C12.075 20.4316 12 20.5983 12 20.79V29.1233C12 29.49 12.3 29.79 12.6667 29.79C12.85 29.79 13.0167 29.715 13.1417 29.5983L21.1417 21.5983C21.2583 21.4816 21.3333 21.315 21.3333 21.1233V12.79Z" fill="url(#paint3_linear_147_2746)"/>
<mask id="mask1_147_2746" style="mask-type:alpha" maskUnits="userSpaceOnUse" x="12" y="12" width="10" height="18">
<path d="M21.3333 12.79C21.3333 12.4233 21.0333 12.1233 20.6667 12.1233C20.4833 12.1233 20.3167 12.1983 20.1917 12.315L12.1917 20.315C12.075 20.4316 12 20.5983 12 20.79V29.1233C12 29.49 12.3 29.79 12.6667 29.79C12.85 29.79 13.0167 29.715 13.1417 29.5983L21.1417 21.5983C21.2583 21.4816 21.3333 21.315 21.3333 21.1233V12.79Z" fill="url(#paint4_linear_147_2746)"/>
</mask>
<g mask="url(#mask1_147_2746)">
<g opacity="0.8" filter="url(#filter1_f_147_2746)">
<path d="M29.3333 25.79C29.3333 29.4719 26.3486 32.4566 22.6667 32.4566C18.9848 32.4566 16 29.4719 16 25.79C16 22.1081 18.9848 19.1233 22.6667 19.1233C26.3486 19.1233 29.3333 22.1081 29.3333 25.79Z" fill="black"/>
</g>
</g>
<g style="mix-blend-mode:multiply">
<path d="M21.3333 12.79C21.3333 12.4233 21.0333 12.1233 20.6667 12.1233C20.4833 12.1233 20.3167 12.1983 20.1917 12.315L12.1917 20.315C12.075 20.4316 12 20.5983 12 20.79V29.1233C12 29.49 12.3 29.79 12.6667 29.79C12.85 29.79 13.0167 29.715 13.1417 29.5983L21.1417 21.5983C21.2583 21.4816 21.3333 21.315 21.3333 21.1233V12.79Z" fill="url(#paint5_linear_147_2746)"/>
</g>
<path d="M33.333 8.78996C33.333 8.42329 33.033 8.12329 32.6663 8.12329C32.483 8.12329 32.3163 8.19829 32.1913 8.31496L17.5247 22.9816C17.408 23.0983 17.333 23.265 17.333 23.4566V31.79C17.333 32.1566 17.633 32.4566 17.9997 32.4566C18.183 32.4566 18.3497 32.3816 18.4747 32.265L33.1413 17.5983C33.258 17.4816 33.333 17.315 33.333 17.1233V8.78996Z" fill="url(#paint6_linear_147_2746)"/>
<g clip-path="url(#clip0_147_2746)">
<path d="M59.8442 13.55C59.9533 13.55 60.033 13.6532 60.0055 13.7587L56.4324 27.4654C56.4133 27.5388 56.347 27.59 56.2711 27.59H52.391C52.3141 27.59 52.2471 27.5374 52.229 27.4626L50.179 19.0065C50.138 18.8373 49.8978 18.8363 49.8554 19.0052L47.7316 27.464C47.713 27.5381 47.6463 27.59 47.5699 27.59H43.6896C43.6133 27.59 43.5468 27.5383 43.528 27.4643L40.0526 13.7577C40.0259 13.6523 40.1055 13.55 40.2141 13.55H43.3604C43.4381 13.55 43.5055 13.6038 43.5229 13.6795L45.6799 23.1034L48.1473 13.6745C48.1665 13.6012 48.2328 13.55 48.3086 13.55H51.8099C51.8863 13.55 51.953 13.602 51.9716 13.6761L54.3399 23.1034L56.5167 13.6792C56.5342 13.6036 56.6015 13.55 56.6791 13.55H59.8442Z" fill="black"/>
<path d="M59.9484 21.99C59.9484 20.8434 60.1617 19.8367 60.5884 18.97C61.0284 18.1034 61.6217 17.4367 62.3684 16.97C63.1151 16.5034 63.9484 16.27 64.8684 16.27C65.6551 16.27 66.3417 16.43 66.9284 16.75C67.3354 16.9671 67.6779 17.2302 67.9561 17.5392C68.0685 17.6641 68.3084 17.5892 68.3084 17.4212V16.5967C68.3084 16.5047 68.383 16.43 68.4751 16.43H71.5617C71.6538 16.43 71.7284 16.5047 71.7284 16.5967V27.4234C71.7284 27.5154 71.6538 27.59 71.5617 27.59H68.4751C68.383 27.59 68.3084 27.5154 68.3084 27.4234V26.5789C68.3084 26.4124 68.0749 26.3379 67.9632 26.4613C67.6755 26.7788 67.3239 27.0484 66.9084 27.27C66.3217 27.59 65.6351 27.75 64.8484 27.75C63.9417 27.75 63.1151 27.5167 62.3684 27.05C61.6217 26.57 61.0284 25.8967 60.5884 25.03C60.1617 24.15 59.9484 23.1367 59.9484 21.99ZM68.3084 22.01C68.3084 21.1567 68.0684 20.4834 67.5884 19.99C67.1217 19.4967 66.5484 19.25 65.8684 19.25C65.1884 19.25 64.6084 19.4967 64.1284 19.99C63.6617 20.47 63.4284 21.1367 63.4284 21.99C63.4284 22.8434 63.6617 23.5234 64.1284 24.03C64.6084 24.5234 65.1884 24.77 65.8684 24.77C66.5484 24.77 67.1217 24.5234 67.5884 24.03C68.0684 23.5367 68.3084 22.8634 68.3084 22.01Z" fill="black"/>
<path d="M78.7426 24.39L81.1267 16.5482C81.148 16.478 81.2128 16.43 81.2861 16.43H84.5666C84.6817 16.43 84.7622 16.544 84.7237 16.6524L80.882 27.4791C80.8584 27.5456 80.7955 27.59 80.7249 27.59H76.7403C76.6698 27.59 76.6068 27.5456 76.5833 27.4791L72.7415 16.6524C72.703 16.544 72.7835 16.43 72.8986 16.43H76.1991C76.2725 16.43 76.3372 16.478 76.3585 16.5482L78.7426 24.39Z" fill="black"/>
<path d="M96.2821 21.83C96.2821 22.1043 96.2674 22.3884 96.2381 22.6823C96.2296 22.7666 96.1583 22.83 96.0736 22.83H88.4822C88.5355 23.5234 88.7555 24.0567 89.1421 24.43C89.5421 24.79 90.0288 24.97 90.6021 24.97C91.4168 24.97 91.9945 24.6419 92.3352 23.9858C92.3651 23.9281 92.4237 23.89 92.4887 23.89H95.8077C95.9165 23.89 95.9961 23.9925 95.9649 24.0966C95.7696 24.7479 95.4487 25.339 95.0021 25.87C94.5221 26.4567 93.9155 26.9167 93.1821 27.25C92.4488 27.5834 91.6288 27.75 90.7221 27.75C89.6288 27.75 88.6555 27.5167 87.8021 27.05C86.9488 26.5834 86.2821 25.9167 85.8021 25.05C85.3221 24.1834 85.0821 23.17 85.0821 22.01C85.0821 20.85 85.3155 19.8367 85.7821 18.97C86.2621 18.1034 86.9288 17.4367 87.7821 16.97C88.6355 16.5034 89.6155 16.27 90.7221 16.27C91.8022 16.27 92.7621 16.4967 93.6021 16.95C94.4422 17.4034 95.0955 18.05 95.5621 18.89C96.0421 19.73 96.2821 20.71 96.2821 21.83ZM92.6155 20.93C92.7075 20.93 92.7828 20.8553 92.7766 20.7635C92.7417 20.2544 92.5435 19.8432 92.1821 19.53C91.7821 19.1834 91.2821 19.01 90.6821 19.01C90.1088 19.01 89.6222 19.1767 89.2221 19.51C88.8766 19.8079 88.6482 20.2176 88.5369 20.7392C88.5156 20.839 88.5941 20.93 88.6961 20.93H92.6155Z" fill="black"/>
<path d="M110.143 25.2232C110.12 25.1556 110.057 25.11 109.985 25.11H104.984C104.913 25.11 104.849 25.1556 104.826 25.2232L104.063 27.4768C104.04 27.5445 103.977 27.59 103.905 27.59H100.682C100.567 27.59 100.486 27.4753 100.525 27.3667L105.485 13.66C105.509 13.594 105.571 13.55 105.642 13.55H109.368C109.438 13.55 109.501 13.594 109.524 13.66L114.484 27.3667C114.523 27.4753 114.443 27.59 114.327 27.59H111.064C110.993 27.59 110.929 27.5445 110.906 27.4768L110.143 25.2232ZM109.225 22.47L107.485 17.33L105.765 22.47H109.225Z" fill="black"/>
<path d="M126.234 16.43C126.326 16.43 126.401 16.5047 126.401 16.5967V27.4234C126.401 27.5154 126.326 27.59 126.234 27.59H123.147C123.055 27.59 122.981 27.5154 122.981 27.4234V26.5971C122.981 26.4343 122.759 26.3591 122.646 26.4767C122.348 26.7881 121.986 27.0525 121.561 27.27C120.974 27.5634 120.321 27.71 119.601 27.71C118.747 27.71 117.994 27.5234 117.341 27.15C116.687 26.7634 116.181 26.21 115.821 25.49C115.461 24.77 115.281 23.9234 115.281 22.95V16.5967C115.281 16.5047 115.355 16.43 115.447 16.43H118.514C118.606 16.43 118.681 16.5047 118.681 16.5967V22.49C118.681 23.2367 118.874 23.8167 119.261 24.23C119.647 24.6434 120.167 24.85 120.821 24.85C121.487 24.85 122.014 24.6434 122.401 24.23C122.787 23.8167 122.981 23.2367 122.981 22.49V16.5967C122.981 16.5047 123.055 16.43 123.147 16.43H126.234Z" fill="black"/>
<path d="M134.431 24.69C134.523 24.69 134.597 24.7647 134.597 24.8567V27.4234C134.597 27.5154 134.523 27.59 134.431 27.59H132.857C131.617 27.59 130.651 27.29 129.957 26.69C129.264 26.0767 128.917 25.0834 128.917 23.71V19.4367C128.917 19.3447 128.843 19.27 128.751 19.27H127.724C127.632 19.27 127.557 19.1954 127.557 19.1034V16.5967C127.557 16.5047 127.632 16.43 127.724 16.43H128.751C128.843 16.43 128.917 16.3554 128.917 16.2634V15.8056C128.917 15.7464 128.949 15.6917 129 15.6618L132.087 13.8567C132.198 13.7917 132.337 13.8719 132.337 14.0006V16.2634C132.337 16.3554 132.412 16.43 132.504 16.43H134.411C134.503 16.43 134.577 16.5047 134.577 16.5967V19.1034C134.577 19.1954 134.503 19.27 134.411 19.27H132.504C132.412 19.27 132.337 19.3447 132.337 19.4367V23.75C132.337 24.0834 132.417 24.3234 132.577 24.47C132.737 24.6167 133.004 24.69 133.377 24.69H134.431Z" fill="black"/>
<path d="M141.102 27.75C140.009 27.75 139.022 27.5167 138.142 27.05C137.276 26.5834 136.589 25.9167 136.082 25.05C135.589 24.1834 135.342 23.17 135.342 22.01C135.342 20.8634 135.596 19.8567 136.102 18.99C136.609 18.11 137.302 17.4367 138.182 16.97C139.062 16.5034 140.049 16.27 141.142 16.27C142.236 16.27 143.222 16.5034 144.102 16.97C144.982 17.4367 145.676 18.11 146.182 18.99C146.689 19.8567 146.942 20.8634 146.942 22.01C146.942 23.1567 146.682 24.17 146.162 25.05C145.656 25.9167 144.956 26.5834 144.062 27.05C143.182 27.5167 142.196 27.75 141.102 27.75ZM141.102 24.79C141.756 24.79 142.309 24.55 142.762 24.07C143.229 23.59 143.462 22.9034 143.462 22.01C143.462 21.1167 143.236 20.43 142.782 19.95C142.342 19.47 141.796 19.23 141.142 19.23C140.476 19.23 139.922 19.47 139.482 19.95C139.042 20.4167 138.822 21.1034 138.822 22.01C138.822 22.9034 139.036 23.59 139.462 24.07C139.902 24.55 140.449 24.79 141.102 24.79Z" fill="black"/>
<path d="M152.817 27.75C151.843 27.75 150.977 27.5834 150.217 27.25C149.457 26.9167 148.857 26.4634 148.417 25.89C148.013 25.3523 147.772 24.7585 147.694 24.1087C147.682 24.0125 147.759 23.93 147.856 23.93H150.906C150.992 23.93 151.062 23.9949 151.08 24.0785C151.146 24.3977 151.319 24.6615 151.597 24.87C151.917 25.11 152.31 25.23 152.777 25.23C153.203 25.23 153.53 25.15 153.757 24.99C153.997 24.8167 154.117 24.5967 154.117 24.33C154.117 24.01 153.95 23.7767 153.617 23.63C153.283 23.47 152.743 23.2967 151.997 23.11C151.197 22.9234 150.53 22.73 149.997 22.53C149.463 22.3167 149.003 21.99 148.617 21.55C148.23 21.0967 148.037 20.49 148.037 19.73C148.037 19.09 148.21 18.51 148.557 17.99C148.917 17.4567 149.437 17.0367 150.117 16.73C150.81 16.4234 151.63 16.27 152.577 16.27C153.977 16.27 155.077 16.6167 155.877 17.31C156.646 17.9659 157.105 18.8247 157.254 19.8863C157.268 19.9842 157.191 20.07 157.092 20.07H154.262C154.179 20.07 154.109 20.0083 154.091 19.9272C154.018 19.6071 153.853 19.348 153.597 19.15C153.317 18.9234 152.943 18.81 152.477 18.81C152.077 18.81 151.77 18.89 151.557 19.05C151.343 19.1967 151.237 19.4034 151.237 19.67C151.237 19.99 151.403 20.23 151.737 20.39C152.083 20.55 152.617 20.71 153.337 20.87C154.163 21.0834 154.837 21.2967 155.357 21.51C155.877 21.71 156.33 22.0434 156.717 22.51C157.117 22.9634 157.323 23.5767 157.337 24.35C157.337 25.0034 157.15 25.59 156.777 26.11C156.417 26.6167 155.89 27.0167 155.197 27.31C154.517 27.6034 153.723 27.75 152.817 27.75Z" fill="black"/>
<path d="M158.269 22.01C158.269 20.85 158.502 19.8367 158.969 18.97C159.449 18.1034 160.109 17.4367 160.949 16.97C161.802 16.5034 162.776 16.27 163.869 16.27C165.269 16.27 166.436 16.6367 167.369 17.37C168.267 18.0659 168.872 19.0319 169.182 20.2681C169.207 20.3714 169.128 20.47 169.022 20.47H165.706C165.636 20.47 165.574 20.4255 165.547 20.3604C165.23 19.5801 164.65 19.19 163.809 19.19C163.182 19.19 162.682 19.4367 162.309 19.93C161.936 20.41 161.749 21.1034 161.749 22.01C161.749 22.9167 161.936 23.6167 162.309 24.11C162.682 24.59 163.182 24.83 163.809 24.83C164.65 24.83 165.23 24.4399 165.547 23.6597C165.574 23.5946 165.636 23.55 165.706 23.55H169.021C169.128 23.55 169.207 23.6492 169.18 23.7526C168.87 24.9633 168.266 25.9224 167.369 26.63C166.422 27.3767 165.256 27.75 163.869 27.75C162.776 27.75 161.802 27.5167 160.949 27.05C160.109 26.5834 159.449 25.9167 158.969 25.05C158.502 24.1834 158.269 23.17 158.269 22.01Z" fill="black"/>
<path d="M169.898 21.99C169.898 20.8434 170.112 19.8367 170.538 18.97C170.978 18.1034 171.572 17.4367 172.318 16.97C173.065 16.5034 173.898 16.27 174.818 16.27C175.605 16.27 176.292 16.43 176.878 16.75C177.285 16.9671 177.628 17.2302 177.906 17.5392C178.019 17.6641 178.258 17.5892 178.258 17.4212V16.5967C178.258 16.5047 178.333 16.43 178.425 16.43H181.512C181.604 16.43 181.678 16.5047 181.678 16.5967V27.4234C181.678 27.5154 181.604 27.59 181.512 27.59H178.425C178.333 27.59 178.258 27.5154 178.258 27.4234V26.5789C178.258 26.4124 178.025 26.3379 177.913 26.4613C177.626 26.7788 177.274 27.0484 176.858 27.27C176.272 27.59 175.585 27.75 174.798 27.75C173.892 27.75 173.065 27.5167 172.318 27.05C171.572 26.57 170.978 25.8967 170.538 25.03C170.112 24.15 169.898 23.1367 169.898 21.99ZM178.258 22.01C178.258 21.1567 178.018 20.4834 177.538 19.99C177.072 19.4967 176.498 19.25 175.818 19.25C175.138 19.25 174.558 19.4967 174.078 19.99C173.612 20.47 173.378 21.1367 173.378 21.99C173.378 22.8434 173.612 23.5234 174.078 24.03C174.558 24.5234 175.138 24.77 175.818 24.77C176.498 24.77 177.072 24.5234 177.538 24.03C178.018 23.5367 178.258 22.8634 178.258 22.01Z" fill="black"/>
<path d="M186.842 9.60337C186.953 9.53839 187.093 9.61853 187.093 9.74724V27.4234C187.093 27.5154 187.018 27.59 186.926 27.59H183.839C183.747 27.59 183.673 27.5154 183.673 27.4234V11.5523C183.673 11.4931 183.704 11.4383 183.755 11.4084L186.842 9.60337Z" fill="black"/>
<path d="M199.611 21.83C199.611 22.1043 199.596 22.3884 199.567 22.6823C199.559 22.7666 199.487 22.83 199.403 22.83H191.811C191.864 23.5234 192.084 24.0567 192.471 24.43C192.871 24.79 193.358 24.97 193.931 24.97C194.746 24.97 195.323 24.6419 195.664 23.9858C195.694 23.9281 195.753 23.89 195.818 23.89H199.137C199.245 23.89 199.325 23.9925 199.294 24.0966C199.099 24.7479 198.778 25.339 198.331 25.87C197.851 26.4567 197.244 26.9167 196.511 27.25C195.778 27.5834 194.958 27.75 194.051 27.75C192.958 27.75 191.984 27.5167 191.131 27.05C190.278 26.5834 189.611 25.9167 189.131 25.05C188.651 24.1834 188.411 23.17 188.411 22.01C188.411 20.85 188.644 19.8367 189.111 18.97C189.591 18.1034 190.258 17.4367 191.111 16.97C191.964 16.5034 192.944 16.27 194.051 16.27C195.131 16.27 196.091 16.4967 196.931 16.95C197.771 17.4034 198.424 18.05 198.891 18.89C199.371 19.73 199.611 20.71 199.611 21.83ZM195.944 20.93C196.036 20.93 196.112 20.8553 196.105 20.7635C196.071 20.2544 195.872 19.8432 195.511 19.53C195.111 19.1834 194.611 19.01 194.011 19.01C193.438 19.01 192.951 19.1767 192.551 19.51C192.205 19.8079 191.977 20.2176 191.866 20.7392C191.844 20.839 191.923 20.93 192.025 20.93H195.944Z" fill="black"/>
</g>
<defs>
<filter id="filter0_f_147_2746" x="1.6665" y="8.79004" width="26.6665" height="26.6667" filterUnits="userSpaceOnUse" color-interpolation-filters="sRGB">
<feFlood flood-opacity="0" result="BackgroundImageFix"/>
<feBlend mode="normal" in="SourceGraphic" in2="BackgroundImageFix" result="shape"/>
<feGaussianBlur stdDeviation="4" result="effect1_foregroundBlur_147_2746"/>
</filter>
<filter id="filter1_f_147_2746" x="-64" y="-60.8767" width="173.333" height="173.333" filterUnits="userSpaceOnUse" color-interpolation-filters="sRGB">
<feFlood flood-opacity="0" result="BackgroundImageFix"/>
<feBlend mode="normal" in="SourceGraphic" in2="BackgroundImageFix" result="shape"/>
<feGaussianBlur stdDeviation="40" result="effect1_foregroundBlur_147_2746"/>
</filter>
<linearGradient id="paint0_linear_147_2746" x1="6.6665" y1="18.8405" x2="12.6665" y2="18.8405" gradientUnits="userSpaceOnUse">
<stop stop-color="#1211DC"/>
<stop offset="1" stop-color="#5200FF"/>
</linearGradient>
<linearGradient id="paint1_linear_147_2746" x1="6.6665" y1="18.8405" x2="12.6665" y2="18.8405" gradientUnits="userSpaceOnUse">
<stop stop-color="#1511D2"/>
<stop offset="1" stop-color="#AC02FF"/>
</linearGradient>
<linearGradient id="paint2_linear_147_2746" x1="6.6665" y1="18.8405" x2="12.6665" y2="18.8405" gradientUnits="userSpaceOnUse">
<stop stop-color="#1511D2"/>
<stop offset="1" stop-color="#AC02FF"/>
</linearGradient>
<linearGradient id="paint3_linear_147_2746" x1="12" y1="18.3736" x2="21.3333" y2="18.3736" gradientUnits="userSpaceOnUse">
<stop stop-color="#1511D2"/>
<stop offset="1" stop-color="#AC02FF"/>
</linearGradient>
<linearGradient id="paint4_linear_147_2746" x1="12" y1="18.3736" x2="21.3333" y2="18.3736" gradientUnits="userSpaceOnUse">
<stop stop-color="#1511D2"/>
<stop offset="1" stop-color="#AC02FF"/>
</linearGradient>
<linearGradient id="paint5_linear_147_2746" x1="12" y1="18.3736" x2="21.3333" y2="18.3736" gradientUnits="userSpaceOnUse">
<stop stop-color="#1511D2"/>
<stop offset="1" stop-color="#AC02FF"/>
</linearGradient>
<linearGradient id="paint6_linear_147_2746" x1="17.333" y1="16.7322" x2="33.333" y2="16.7322" gradientUnits="userSpaceOnUse">
<stop stop-color="#1511D2"/>
<stop offset="1" stop-color="#AC02FF"/>
</linearGradient>
<clipPath id="clip0_147_2746">
<rect width="159.667" height="40" fill="white" transform="translate(40 0.290039)"/>
</clipPath>
</defs>
</svg>
